<svg xmlns="http://www.w3.org/2000/svg" width="54.439" height="54.439" viewBox="0 0 54.439 54.439">
  <path id="Icon_awesome-arrow-right" data-name="Icon awesome-arrow-right" d="M16.577,5.192l1.932-1.932a2.08,2.08,0,0,1,2.95,0L38.374,20.168a2.08,2.08,0,0,1,0,2.95L21.458,40.034a2.08,2.08,0,0,1-2.95,0L16.577,38.1a2.091,2.091,0,0,1,.035-2.985L27.1,25.128H2.088A2.083,2.083,0,0,1,0,23.04V20.255a2.083,2.083,0,0,1,2.088-2.088H27.1L16.611,8.177A2.076,2.076,0,0,1,16.577,5.192Z" transform="translate(-1.872 25.697) rotate(-45)" fill="#292F36"/>
</svg>
