<svg xmlns="http://www.w3.org/2000/svg" width="31.106" height="31.099" viewBox="0 0 31.106 31.099">
  <path id="Icon_awesome-instagram" data-name="Icon awesome-instagram" d="M15.551,9.814a7.973,7.973,0,1,0,7.973,7.973A7.961,7.961,0,0,0,15.551,9.814Zm0,13.157a5.184,5.184,0,1,1,5.184-5.184A5.193,5.193,0,0,1,15.551,22.971ZM25.71,9.488a1.86,1.86,0,1,1-1.86-1.86A1.855,1.855,0,0,1,25.71,9.488Zm5.281,1.888a9.2,9.2,0,0,0-2.512-6.516,9.264,9.264,0,0,0-6.516-2.512C19.4,2.2,11.7,2.2,9.132,2.347A9.251,9.251,0,0,0,2.616,4.852,9.234,9.234,0,0,0,.1,11.368C-.042,13.936-.042,21.632.1,24.2a9.2,9.2,0,0,0,2.512,6.516,9.276,9.276,0,0,0,6.516,2.512c2.568.146,10.263.146,12.831,0a9.2,9.2,0,0,0,6.516-2.512A9.264,9.264,0,0,0,30.991,24.2c.146-2.568.146-10.256,0-12.824ZM27.674,26.954a5.248,5.248,0,0,1-2.956,2.956c-2.047.812-6.9.625-9.167.625s-7.127.18-9.167-.625a5.248,5.248,0,0,1-2.956-2.956c-.812-2.047-.625-6.9-.625-9.167s-.18-7.127.625-9.167A5.248,5.248,0,0,1,6.384,5.664c2.047-.812,6.9-.625,9.167-.625s7.127-.18,9.167.625A5.248,5.248,0,0,1,27.674,8.62c.812,2.047.625,6.9.625,9.167S28.486,24.914,27.674,26.954Z" transform="translate(0.005 -2.238)" fill="#292F36"/>
</svg>
