<svg xmlns="http://www.w3.org/2000/svg" width="26.648" height="26.647" viewBox="0 0 26.648 26.647">
  <path id="Icon_awesome-linkedin-in" data-name="Icon awesome-linkedin-in" d="M5.965,26.648H.44V8.857H5.965ZM3.2,6.43A3.215,3.215,0,1,1,6.4,3.2,3.227,3.227,0,0,1,3.2,6.43ZM26.642,26.648H21.129V17.987c0-2.064-.042-4.711-2.872-4.711-2.872,0-3.313,2.242-3.313,4.562v8.809H9.426V8.857h5.3v2.427H14.8a5.805,5.805,0,0,1,5.227-2.873c5.591,0,6.619,3.682,6.619,8.464v9.773Z" transform="translate(0 -0.001)" fill="#292F36"/>
</svg>
