<svg xmlns="http://www.w3.org/2000/svg" width="30" height="30" viewBox="0 0 30 30">
  <path id="Icon_open-puzzle-piece" data-name="Icon open-puzzle-piece" d="M11.25,0a3.8,3.8,0,0,0-2.7,1.05A3.8,3.8,0,0,0,7.5,3.75c0,1.05.675,1.8,1.05,2.7A2.7,2.7,0,0,1,8.663,7.5H0V30H8.663a3.7,3.7,0,0,0-.113-1.05c-.375-.9-1.05-1.65-1.05-2.7a3.8,3.8,0,0,1,1.05-2.7,3.8,3.8,0,0,1,2.7-1.05,3.8,3.8,0,0,1,2.7,1.05A3.8,3.8,0,0,1,15,26.25c0,1.05-.675,1.8-1.05,2.7A2.7,2.7,0,0,0,13.837,30H22.5V21.337a3.7,3.7,0,0,1,1.05.112c.9.375,1.65,1.05,2.7,1.05a3.751,3.751,0,1,0,0-7.5c-1.05,0-1.8.675-2.7,1.05a2.7,2.7,0,0,1-1.05.113V7.5H13.838a3.7,3.7,0,0,1,.113-1.05C14.325,5.55,15,4.8,15,3.75a3.8,3.8,0,0,0-1.05-2.7A3.8,3.8,0,0,0,11.25,0Z" 
  fill="#351518"/>
</svg>
